<svg width="49" height="49" viewBox="0 0 49 49" fill="none" xmlns="http://www.w3.org/2000/svg">
<g clip-path="url(#clip0_2016_98)">
<path d="M41.2213 4.06292H7.77882C5.72582 4.06292 4.06299 5.72575 4.06299 7.77875V41.2213C4.06299 43.2742 5.72582 44.9371 7.77882 44.9371H41.2213C43.2743 44.9371 44.9372 43.2742 44.9372 41.2213V7.77875C44.9372 5.72575 43.2743 4.06292 41.2213 4.06292ZM16.9829 37.5054H11.5021V19.8701H16.9829V37.5054ZM14.1868 17.3489C12.4199 17.3489 10.9912 15.9164 10.9912 14.1533C10.9912 12.3901 12.4218 10.9595 14.1868 10.9595C15.9481 10.9595 17.3805 12.392 17.3805 14.1533C17.3805 15.9164 15.9481 17.3489 14.1868 17.3489ZM37.5129 37.5054H32.0358V28.9293C32.0358 26.8837 31.9986 24.2529 29.1876 24.2529C26.3357 24.2529 25.8972 26.4805 25.8972 28.7806V37.5054H20.4201V19.8701H25.678V22.2798H25.7523C26.4843 20.8938 28.2716 19.4316 30.9378 19.4316C36.4874 19.4316 37.5129 23.0843 37.5129 27.8331V37.5054Z" fill="white"/>
</g>
<defs>
<clipPath id="clip0_2016_98">
<rect width="49" height="49" fill="white"/>
</clipPath>
</defs>
</svg>
