<svg width="46" height="47" viewBox="0 0 46 47" fill="none" xmlns="http://www.w3.org/2000/svg">
<path fill-rule="evenodd" clip-rule="evenodd" d="M22.9999 1.46875C10.8219 1.46875 0.958252 11.5468 0.958252 23.9896C0.958252 33.955 7.26768 42.3722 16.0292 45.3562C17.1313 45.5533 17.5446 44.8777 17.5446 44.2865C17.5446 43.7516 17.5171 41.9781 17.5171 40.092C11.9791 41.1336 10.5464 38.7126 10.1055 37.4458C9.85758 36.7983 8.78304 34.7996 7.84627 34.2647C7.07481 33.8424 5.97273 32.8009 7.81872 32.7727C9.5545 32.7446 10.7943 34.4055 11.2076 35.0811C13.1914 38.4874 16.3599 37.5302 17.6273 36.9391C17.8201 35.4752 18.3987 34.4899 19.0324 33.9269C14.1281 33.3639 9.00346 31.4215 9.00346 22.8072C9.00346 20.3581 9.85757 18.3312 11.2627 16.7548C11.0423 16.1917 10.2709 13.8834 11.4831 10.7867C11.4831 10.7867 13.3291 10.1956 17.5446 13.0951C19.3079 12.5884 21.1815 12.3351 23.055 12.3351C24.9286 12.3351 26.8021 12.5884 28.5654 13.0951C32.7809 10.1674 34.6269 10.7867 34.6269 10.7867C35.8392 13.8834 35.0677 16.1917 34.8473 16.7548C36.2525 18.3312 37.1066 20.3299 37.1066 22.8072C37.1066 31.4496 31.9543 33.3639 27.0501 33.9269C27.8491 34.6307 28.5379 35.9819 28.5379 38.0933C28.5379 41.1054 28.5103 43.5264 28.5103 44.2865C28.5103 44.8777 28.9236 45.5814 30.0257 45.3562C38.7322 42.3722 45.0416 33.9269 45.0416 23.9896C45.0416 11.5468 35.1779 1.46875 22.9999 1.46875V1.46875Z" fill="white"/>
</svg>
